<?xml version="1.0" standalone="no"?>
<!DOCTYPE svg PUBLIC "-//W3C//DTD SVG 20010904//EN"
 "http://www.w3.org/TR/2001/REC-SVG-20010904/DTD/svg10.dtd">
<svg version="1.0" xmlns="http://www.w3.org/2000/svg"
 width="512.000000pt" height="512.000000pt" viewBox="0 0 512.000000 512.000000"
 preserveAspectRatio="xMidYMid meet">

<g transform="translate(0.000000,512.000000) scale(0.100000,-0.100000)"
fill="#000000" stroke="none">
<path d="M1404 4827 c-2 -7 -3 -102 -2 -212 l3 -200 378 -3 377 -2 0 -720 0
-720 -725 0 -725 0 0 370 0 370 -215 0 -215 0 0 -1145 0 -1145 215 0 215 0 0
380 0 380 725 0 725 0 0 -730 0 -730 -380 0 -380 0 0 -215 0 -215 1148 2 1147
3 0 210 0 210 -372 3 -373 2 0 730 0 730 725 0 725 0 0 -385 0 -385 215 0 215
0 0 1150 0 1150 -215 0 -215 0 -2 -367 -3 -368 -722 -3 -723 -2 0 720 0 720
375 0 375 0 0 215 0 215 -1145 0 c-921 0 -1147 -3 -1151 -13z m2256 -202 l0
-175 -375 0 -375 0 0 -760 0 -760 765 0 765 0 2 368 3 367 170 0 170 0 0
-1105 0 -1105 -172 -3 -173 -2 0 385 0 385 -765 0 -765 0 0 -770 0 -770 370 0
370 0 0 -175 0 -175 -1105 0 -1105 0 0 175 0 175 380 0 380 0 0 770 0 770
-767 -2 -768 -3 -3 -377 -2 -378 -170 0 -170 0 0 1105 0 1105 170 0 170 0 2
-367 3 -368 768 -3 767 -2 0 760 0 760 -375 0 -375 0 0 175 0 175 1105 0 1105
0 0 -175z"/>
<path d="M1278 4098 l-3 -243 -248 -3 -248 -2 3 -148 3 -147 245 -5 245 -5 3
-242 2 -243 150 0 150 0 0 245 0 245 245 0 245 0 0 150 0 150 -245 0 -245 0 0
245 0 245 -150 0 -150 0 -2 -242z m260 -45 l2 -243 245 0 245 0 0 -110 0 -110
-245 0 -245 0 -2 -242 -3 -243 -107 -3 -108 -3 0 246 0 245 -245 0 -245 0 0
110 0 110 245 0 245 0 0 245 0 246 108 -3 107 -3 3 -242z"/>
<path d="M3540 4095 l0 -245 -245 0 -245 0 0 -150 0 -150 245 0 245 0 0 -245
0 -245 150 0 150 0 2 243 3 242 245 5 245 5 0 145 0 145 -245 5 -245 5 -3 243
-2 242 -150 0 -150 0 0 -245z m260 -40 l0 -245 245 0 245 0 0 -110 0 -110
-245 0 -245 0 0 -245 0 -245 -110 0 -110 0 0 245 0 245 -242 2 -243 3 -3 108
-3 107 246 0 245 0 0 238 c0 131 3 242 7 245 3 4 53 7 110 7 l103 0 0 -245z"/>
<path d="M1278 1838 l-3 -243 -248 -3 -248 -2 3 -148 3 -147 248 -3 247 -2 0
-245 0 -245 150 0 150 0 0 245 0 245 245 0 245 0 0 150 0 150 -242 2 -243 3
-3 243 -2 242 -150 0 -150 0 -2 -242z m262 -43 l0 -245 245 0 245 0 0 -110 0
-110 -245 0 -245 0 -2 -242 -3 -243 -107 -3 -108 -3 0 246 0 245 -245 0 -245
0 0 110 0 110 245 0 245 0 0 245 0 245 110 0 110 0 0 -245z"/>
<path d="M3538 1838 l-3 -243 -242 -3 -243 -2 0 -150 0 -150 245 0 245 0 0
-245 0 -245 150 0 150 0 0 245 0 245 248 2 247 3 0 145 0 145 -245 5 -245 5
-3 243 -2 242 -150 0 -150 0 -2 -242z m262 -43 l0 -245 245 0 245 0 0 -110 0
-110 -245 0 -245 0 0 -245 0 -246 -107 3 -108 3 -3 242 -2 243 -243 2 -242 3
-3 108 -3 107 246 0 245 0 0 245 0 245 110 0 110 0 0 -245z"/>
</g>
</svg>
