<?xml version="1.0" standalone="no"?>
<!DOCTYPE svg PUBLIC "-//W3C//DTD SVG 20010904//EN"
 "http://www.w3.org/TR/2001/REC-SVG-20010904/DTD/svg10.dtd">
<svg version="1.0" xmlns="http://www.w3.org/2000/svg"
 width="200.000000pt" height="200.000000pt" viewBox="0 0 200.000000 200.000000"
 preserveAspectRatio="xMidYMid meet">

<g transform="translate(0.000000,200.000000) scale(0.100000,-0.100000)"
fill="#000000" stroke="none">
<path d="M0 1000 l0 -1000 1000 0 1000 0 0 1000 0 1000 -1000 0 -1000 0 0
-1000z m1530 -745 c0 -96 -3 -115 -15 -115 -12 0 -15 19 -15 115 0 96 3 115
15 115 12 0 15 -19 15 -115z m-883 90 c2 -6 -16 -9 -46 -7 -39 3 -53 0 -70
-17 -26 -26 -28 -96 -5 -130 14 -20 23 -22 70 -19 44 2 54 0 52 -12 -2 -11
-18 -16 -54 -18 -43 -2 -56 1 -82 23 -55 46 -51 148 6 180 30 16 123 16 129 0z
m473 -19 c0 -7 9 -16 20 -19 26 -7 26 -27 1 -27 -24 0 -27 -8 -22 -71 3 -44 6
-50 22 -46 12 3 19 0 19 -9 0 -9 -11 -14 -30 -14 -37 0 -50 23 -50 88 0 38 -4
51 -17 57 -17 6 -17 7 0 19 9 7 17 18 17 25 0 6 9 11 20 11 11 0 20 -6 20 -14z
m-291 -53 c18 -21 22 -34 17 -62 -7 -46 -38 -71 -86 -71 -66 0 -103 73 -64
128 34 48 92 50 133 5z m86 27 c4 -6 15 -6 32 1 57 21 83 -12 83 -107 0 -41
-4 -54 -15 -54 -11 0 -15 12 -15 51 0 58 -13 89 -38 89 -31 0 -42 -22 -42 -82
0 -45 -3 -58 -15 -58 -12 0 -15 16 -15 85 0 77 8 102 25 75z m300 0 c4 -7 13
-7 26 0 20 11 39 6 39 -11 0 -5 -8 -9 -18 -9 -31 0 -42 -22 -42 -82 0 -45 -3
-58 -15 -58 -12 0 -15 16 -15 85 0 77 8 102 25 75z m204 -5 c47 -24 56 -83 20
-129 -16 -21 -29 -26 -63 -26 -49 0 -73 19 -81 66 -7 36 12 75 45 91 32 16 45
16 79 -2z"/>
<path d="M726 258 c-21 -30 -20 -54 4 -78 23 -23 39 -25 65 -6 21 15 23 69 4
92 -17 21 -56 17 -73 -8z"/>
<path d="M1342 268 c-7 -7 -12 -29 -12 -50 0 -31 5 -41 25 -50 54 -24 102 53
59 96 -18 19 -55 21 -72 4z"/>
</g>
</svg>
