<?xml version="1.0" standalone="no"?>
<!DOCTYPE svg PUBLIC "-//W3C//DTD SVG 20010904//EN"
 "http://www.w3.org/TR/2001/REC-SVG-20010904/DTD/svg10.dtd">
<svg version="1.0" xmlns="http://www.w3.org/2000/svg"
 width="200.000000pt" height="200.000000pt" viewBox="0 0 200.000000 200.000000"
 preserveAspectRatio="xMidYMid meet">

<g transform="translate(0.000000,200.000000) scale(0.100000,-0.100000)"
fill="#000000" stroke="none">
<path d="M0 1000 l0 -1000 1000 0 1000 0 0 1000 0 1000 -1000 0 -1000 0 0
-1000z m830 -755 c0 -104 -2 -125 -15 -125 -13 0 -15 21 -15 125 0 104 2 125
15 125 13 0 15 -21 15 -125z m-440 100 c0 -11 -12 -15 -45 -15 l-45 0 0 -40 0
-40 45 0 c35 0 43 -3 39 -15 -4 -10 -20 -15 -45 -15 -38 0 -39 -1 -39 -35 0
-35 0 -35 45 -35 33 0 45 -4 45 -15 0 -12 -13 -15 -60 -15 l-60 0 0 120 0 120
60 0 c47 0 60 -3 60 -15z m520 0 c0 -8 -7 -15 -15 -15 -8 0 -15 7 -15 15 0 8
7 15 15 15 8 0 15 -7 15 -15z m470 0 c0 -8 -7 -15 -15 -15 -8 0 -15 7 -15 15
0 8 7 15 15 15 8 0 15 -7 15 -15z m-390 -30 c0 -18 5 -25 20 -25 11 0 20 -4
20 -10 0 -5 -9 -10 -20 -10 -18 0 -20 -7 -20 -60 0 -54 2 -60 21 -60 12 0 19
-5 17 -12 -3 -7 -16 -13 -29 -13 -23 0 -24 3 -27 73 -2 55 -6 72 -17 72 -8 0
-15 5 -15 10 0 6 7 10 15 10 9 0 15 9 15 25 0 14 5 25 10 25 6 0 10 -11 10
-25z m-412 -127 c-3 -95 -4 -101 -31 -124 -30 -26 -66 -31 -98 -14 -33 18 -22
31 21 24 47 -8 70 7 70 44 0 20 -3 23 -12 14 -19 -19 -57 -14 -83 13 -31 30
-33 82 -4 118 18 24 27 26 80 26 l61 -1 -4 -100z m160 90 c7 -7 12 -42 12 -85
0 -58 -3 -73 -15 -73 -8 0 -15 5 -15 10 0 6 -8 5 -20 -2 -32 -20 -74 1 -78 39
-4 37 26 63 70 63 17 0 28 5 28 14 0 19 -24 27 -60 19 -30 -5 -43 10 -17 20
24 10 83 7 95 -5z m172 -73 c0 -69 -3 -85 -15 -85 -12 0 -15 16 -15 85 0 69 3
85 15 85 12 0 15 -16 15 -85z m265 61 c11 -17 15 -42 13 -82 l-3 -58 -51 -3
c-64 -3 -94 21 -78 65 7 21 19 29 52 36 24 6 42 16 42 23 0 20 -23 25 -53 14
-21 -8 -27 -7 -27 3 0 20 11 26 51 26 30 0 42 -6 54 -24z m85 12 c0 -9 3 -9
12 0 17 17 48 15 48 -3 0 -8 -6 -12 -12 -10 -28 10 -42 -14 -46 -80 -6 -95
-26 -80 -30 23 -2 68 0 82 13 82 8 0 15 -5 15 -12z m120 -73 c0 -69 -3 -85
-15 -85 -12 0 -15 16 -15 85 0 69 3 85 15 85 12 0 15 -16 15 -85z m158 73 c7
-7 12 -42 12 -85 0 -58 -3 -73 -15 -73 -8 0 -15 5 -15 12 0 9 -3 9 -12 0 -17
-17 -54 -15 -72 4 -38 37 -4 94 56 94 18 0 28 5 28 14 0 20 -32 28 -64 17 -20
-8 -26 -7 -26 3 0 8 6 17 13 19 24 10 83 7 95 -5z m92 0 c0 -9 3 -9 12 0 7 7
27 12 45 12 42 0 53 -21 53 -104 0 -52 -3 -66 -15 -66 -12 0 -15 14 -15 63 0
81 -26 110 -64 71 -11 -10 -16 -34 -16 -75 0 -46 -3 -59 -15 -59 -12 0 -15 16
-15 85 0 69 3 85 15 85 8 0 15 -5 15 -12z"/>
<path d="M470 250 c-48 -48 1 -128 57 -92 19 12 22 68 6 92 -18 25 -38 25 -63
0z"/>
<path d="M680 201 c-29 -8 -34 -44 -7 -49 23 -5 47 15 47 39 0 20 -2 21 -40
10z"/>
<path d="M1115 201 c-21 -5 -30 -12 -30 -26 0 -30 55 -28 66 2 10 27 3 31 -36
24z"/>
<path d="M1480 201 c-29 -8 -34 -44 -7 -49 23 -5 47 15 47 39 0 20 -2 21 -40
10z"/>
</g>
</svg>
