<?xml version="1.0" standalone="no"?>
<!DOCTYPE svg PUBLIC "-//W3C//DTD SVG 20010904//EN"
 "http://www.w3.org/TR/2001/REC-SVG-20010904/DTD/svg10.dtd">
<svg version="1.0" xmlns="http://www.w3.org/2000/svg"
 width="200.000000pt" height="200.000000pt" viewBox="0 0 200.000000 200.000000"
 preserveAspectRatio="xMidYMid meet">

<g transform="translate(0.000000,200.000000) scale(0.100000,-0.100000)"
fill="#000000" stroke="none">
<path d="M0 1000 l0 -1000 1000 0 1000 0 0 1000 0 1000 -1000 0 -1000 0 0
-1000z m1037 680 c3 -11 13 -20 22 -20 14 -1 14 -2 -1 -11 -14 -8 -18 -24 -18
-75 0 -36 -5 -74 -10 -84 -11 -20 3 -39 15 -20 3 5 37 10 75 10 44 0 74 5 81
13 19 20 74 -33 64 -62 -3 -12 -13 -21 -21 -21 -8 0 -17 -7 -21 -16 -5 -15 -7
-15 -15 0 -7 12 -25 16 -83 16 -41 0 -77 5 -80 10 -4 6 -11 7 -17 4 -6 -4 -6
-10 1 -17 6 -6 11 -40 11 -77 0 -36 4 -70 8 -75 4 -6 26 -19 50 -29 77 -35
166 -162 142 -205 -5 -10 -7 -36 -5 -59 2 -23 1 -42 -4 -42 -5 0 -14 -14 -21
-30 -15 -37 -69 -85 -117 -105 -101 -42 -242 6 -290 98 -9 18 -21 35 -27 39
-8 5 -7 14 3 30 10 16 11 23 2 26 -9 3 -9 7 0 18 7 8 7 14 1 14 -40 0 3 116
64 170 22 20 55 42 74 50 47 19 50 24 50 100 0 37 5 71 11 77 7 7 7 13 1 17
-6 3 -13 2 -17 -4 -3 -5 -40 -10 -81 -10 -54 0 -76 -4 -80 -14 -4 -10 -12 -7
-35 13 -36 32 -36 40 0 72 23 20 31 23 35 13 4 -10 26 -14 79 -14 44 0 78 -5
86 -12 12 -11 12 -9 6 7 -5 11 -8 48 -7 82 2 51 -2 67 -18 83 -12 12 -15 20
-7 20 7 0 18 9 25 20 7 12 23 20 38 20 17 0 28 -7 31 -20z m-357 -1265 c0 -12
-15 -15 -75 -15 l-75 0 0 -40 0 -40 65 0 c86 0 86 -23 0 -30 l-60 -5 0 -55 c0
-44 -4 -55 -18 -58 -15 -3 -17 9 -17 127 l0 131 90 0 c73 0 90 -3 90 -15z
m601 8 c1 -5 2 -63 3 -130 1 -112 0 -123 -16 -123 -10 0 -18 5 -18 12 0 9 -3
9 -12 0 -20 -20 -67 -14 -93 13 -35 34 -35 106 0 140 26 27 73 33 93 13 9 -9
12 -2 12 35 0 35 4 47 15 47 8 0 15 -3 16 -7z m299 -124 c0 -117 -2 -130 -17
-127 -15 3 -17 18 -15 128 1 69 2 126 2 128 0 1 7 2 15 2 13 0 15 -21 15 -131z
m-723 39 c13 -13 23 -33 23 -50 0 -28 0 -28 -65 -28 -58 0 -65 -2 -65 -20 0
-10 9 -24 21 -30 23 -13 69 -6 69 10 0 6 9 10 20 10 11 0 20 -4 20 -10 0 -5
-9 -19 -20 -30 -29 -29 -94 -27 -125 5 -35 34 -35 106 0 140 32 33 89 34 122
3z m103 -47 c0 -80 14 -101 55 -83 23 11 25 17 25 82 0 63 2 70 20 70 19 0 20
-7 20 -95 0 -75 -3 -95 -14 -95 -8 0 -16 6 -19 13 -4 10 -7 10 -18 -1 -17 -16
-60 -15 -83 1 -19 14 -20 26 -17 140 1 26 6 37 16 37 12 0 15 -14 15 -69z
m514 53 c10 -10 16 -33 16 -63 0 -27 3 -62 6 -78 l6 -30 -67 -1 c-83 -2 -105
9 -105 48 0 35 27 55 88 65 44 7 50 13 30 33 -17 17 -48 15 -69 -4 -10 -9 -25
-14 -34 -12 -15 3 -14 6 5 31 17 22 29 27 65 27 26 0 50 -6 59 -16z"/>
<path d="M980 1210 c0 -11 5 -20 10 -20 6 0 10 9 10 20 0 11 -4 20 -10 20 -5
0 -10 -9 -10 -20z"/>
<path d="M1010 1210 c0 -11 5 -20 10 -20 6 0 10 9 10 20 0 11 -4 20 -10 20 -5
0 -10 -9 -10 -20z"/>
<path d="M984 1146 c-3 -14 -3 -30 1 -35 8 -14 32 -14 40 0 11 16 -4 59 -20
59 -8 0 -17 -11 -21 -24z"/>
<path d="M980 1049 c0 -11 5 -17 10 -14 6 3 10 13 10 21 0 8 -4 14 -10 14 -5
0 -10 -9 -10 -21z"/>
<path d="M1010 1056 c0 -8 5 -18 10 -21 6 -3 10 3 10 14 0 12 -4 21 -10 21 -5
0 -10 -6 -10 -14z"/>
<path d="M814 995 c-8 -19 3 -35 25 -35 26 0 44 23 29 38 -17 17 -47 15 -54
-3z"/>
<path d="M900 1000 c0 -5 9 -10 20 -10 11 0 20 5 20 10 0 6 -9 10 -20 10 -11
0 -20 -4 -20 -10z"/>
<path d="M970 984 c0 -23 3 -25 38 -22 30 2 38 7 40 26 3 20 -1 22 -37 22 -37
0 -41 -2 -41 -26z"/>
<path d="M1080 1000 c0 -5 9 -10 20 -10 11 0 20 5 20 10 0 6 -9 10 -20 10 -11
0 -20 -4 -20 -10z"/>
<path d="M1154 995 c-8 -19 3 -35 25 -35 26 0 44 23 29 38 -17 17 -47 15 -54
-3z"/>
<path d="M903 968 c2 -7 10 -13 17 -13 7 0 15 6 18 13 2 7 -5 12 -18 12 -13 0
-20 -5 -17 -12z"/>
<path d="M1083 968 c2 -7 10 -13 17 -13 7 0 15 6 18 13 2 7 -5 12 -18 12 -13
0 -20 -5 -17 -12z"/>
<path d="M1177 317 c-25 -18 -26 -86 -2 -103 24 -18 40 -18 59 2 21 20 21 78
0 98 -19 19 -35 20 -57 3z"/>
<path d="M764 316 c-27 -20 -14 -28 42 -24 46 3 47 4 30 21 -21 21 -46 22 -72
3z"/>
<path d="M1420 250 c-51 -9 -64 -18 -49 -36 16 -19 42 -18 69 4 31 25 22 39
-20 32z"/>
</g>
</svg>
