<?xml version="1.0" standalone="no"?>
<!DOCTYPE svg PUBLIC "-//W3C//DTD SVG 20010904//EN"
 "http://www.w3.org/TR/2001/REC-SVG-20010904/DTD/svg10.dtd">
<svg version="1.0" xmlns="http://www.w3.org/2000/svg"
 width="200.000000pt" height="200.000000pt" viewBox="0 0 200.000000 200.000000"
 preserveAspectRatio="xMidYMid meet">

<g transform="translate(0.000000,200.000000) scale(0.100000,-0.100000)"
fill="#000000" stroke="none">
<path d="M0 1000 l0 -1000 1000 0 1000 0 0 1000 0 1000 -1000 0 -1000 0 0
-1000z m1877 877 l28 -27 5 -623 c3 -342 3 -625 -1 -630 -3 -4 -412 -6 -910
-5 l-904 3 -3 623 -2 624 35 34 36 34 844 -2 845 -3 27 -28z m-1087 -1518 c0
-50 0 -50 22 -35 29 20 41 20 67 -1 35 -31 40 -153 6 -153 -10 0 -15 18 -17
68 -3 65 -4 67 -30 70 -34 4 -48 -25 -48 -94 0 -32 -4 -44 -15 -44 -12 0 -15
20 -15 120 0 100 3 120 15 120 11 0 15 -12 15 -51z m-72 18 c3 -14 -1 -16 -20
-9 -13 5 -29 7 -35 6 -7 -1 -20 -2 -28 -3 -53 -4 -76 -110 -34 -152 17 -17 31
-20 70 -17 40 2 49 0 47 -12 -2 -11 -18 -16 -54 -18 -43 -2 -56 1 -82 23 -55
46 -52 140 6 185 34 27 125 25 130 -3z m330 -53 c19 -13 22 -24 22 -84 l0 -68
-56 1 c-64 2 -81 17 -70 60 6 25 12 29 69 41 43 10 27 31 -22 29 -45 -2 -55
12 -18 27 33 13 50 12 75 -6z m204 -12 c15 -16 22 -44 19 -84 -3 -55 -93 -78
-138 -36 -26 24 -32 83 -10 110 32 41 94 46 129 10z m142 22 c28 -11 17 -29
-16 -29 -23 0 -34 -5 -36 -17 -2 -11 3 -18 11 -18 20 0 67 -39 67 -55 0 -25
-31 -45 -71 -45 -33 0 -39 3 -39 20 0 18 3 19 20 10 24 -13 63 -4 57 13 -2 7
-20 20 -40 30 -44 20 -50 57 -15 81 24 17 38 19 62 10z"/>
<path d="M1141 1769 c-108 -18 -193 -93 -227 -199 l-19 -60 -132 0 c-136 0
-173 -7 -209 -41 -29 -27 -40 -100 -20 -131 13 -20 13 -36 1 -138 -8 -63 -15
-183 -15 -266 0 -145 1 -151 23 -172 35 -33 79 -42 155 -33 77 10 474 7 574
-4 67 -7 68 -7 97 23 38 42 43 71 36 247 -15 404 -24 446 -100 490 -38 23 -52
25 -164 25 -122 0 -122 0 -115 23 24 77 65 111 149 122 72 9 101 -1 124 -41
23 -39 60 -45 90 -15 60 60 -57 185 -169 180 -14 -1 -50 -5 -79 -10z m122
-415 c8 -27 28 -505 22 -512 -2 -2 -31 2 -65 9 -66 13 -529 8 -564 -7 -18 -7
-19 -2 -11 172 10 228 10 312 0 348 l-8 28 189 -6 c104 -3 234 -3 289 2 118 9
136 5 148 -34z"/>
<path d="M925 1340 c-58 -24 -90 -96 -75 -167 7 -30 7 -64 -1 -108 -9 -54 -8
-68 6 -98 23 -49 45 -66 92 -73 47 -6 85 10 123 53 46 52 52 72 56 191 4 122
0 139 -47 185 -24 23 -37 27 -81 26 -29 0 -62 -4 -73 -9z"/>
<path d="M983 243 c-18 -7 -16 -42 1 -49 22 -8 56 14 56 36 0 20 -27 26 -57
13z"/>
<path d="M1156 294 c-22 -22 -20 -67 4 -89 16 -15 26 -17 48 -9 22 8 28 16 30
47 2 21 -2 45 -9 53 -15 19 -54 18 -73 -2z"/>
</g>
</svg>
