<?xml version="1.0" standalone="no"?>
<!DOCTYPE svg PUBLIC "-//W3C//DTD SVG 20010904//EN"
 "http://www.w3.org/TR/2001/REC-SVG-20010904/DTD/svg10.dtd">
<svg version="1.0" xmlns="http://www.w3.org/2000/svg"
 width="200.000000pt" height="200.000000pt" viewBox="0 0 200.000000 200.000000"
 preserveAspectRatio="xMidYMid meet">

<g transform="translate(0.000000,200.000000) scale(0.100000,-0.100000)"
fill="#000000" stroke="none">
<path d="M0 1000 l0 -1000 1000 0 1000 0 0 1000 0 1000 -1000 0 -1000 0 0
-1000z m1868 898 c23 -23 42 -48 42 -56 0 -7 5 -10 10 -7 7 4 10 -202 10 -612
0 -597 -1 -619 -19 -635 -11 -9 -22 -14 -25 -11 -3 4 -6 1 -6 -6 0 -7 -5 -9
-10 -6 -6 4 -406 7 -890 7 -849 0 -879 0 -896 19 -9 10 -17 31 -17 46 0 16 1
290 2 611 0 386 4 582 11 582 5 0 10 6 10 13 0 19 35 49 45 40 5 -5 4 -1 -3 8
-10 14 -9 18 10 25 13 5 390 11 838 14 448 3 822 6 831 8 9 1 35 -17 57 -40z
m-1428 -1573 l0 -115 65 0 c51 0 65 -3 65 -15 0 -12 -16 -15 -85 -15 l-85 0 0
130 c0 123 1 130 20 130 19 0 20 -7 20 -115z m204 100 c-4 -8 -12 -15 -20 -15
-8 0 -14 7 -14 15 0 8 9 15 20 15 13 0 18 -5 14 -15z m79 -27 l0 -37 41 5 c35
5 44 2 66 -20 33 -36 33 -106 0 -141 -26 -27 -77 -34 -98 -13 -9 9 -12 9 -12
0 0 -7 -7 -12 -15 -12 -13 0 -15 21 -15 131 0 118 2 130 17 127 13 -2 17 -13
16 -40z m547 2 c0 -20 5 -30 15 -30 8 0 15 -7 15 -15 0 -8 -7 -15 -15 -15 -12
0 -15 -14 -15 -65 0 -51 3 -65 15 -65 8 0 15 -7 15 -15 0 -18 -41 -20 -58 -3
-7 7 -12 40 -12 80 0 39 -4 68 -10 68 -5 0 -10 7 -10 15 0 8 5 15 10 15 6 0
10 11 10 24 0 22 10 33 33 35 4 1 7 -12 7 -29z m-627 -125 c1 -77 -1 -90 -16
-93 -15 -3 -17 7 -17 93 0 84 2 96 16 93 14 -2 17 -18 17 -93z m392 70 c14
-13 25 -36 25 -50 0 -24 -2 -25 -70 -25 -74 0 -83 -7 -50 -40 24 -24 53 -26
74 -5 15 15 46 21 46 8 0 -4 -10 -17 -22 -30 -24 -25 -75 -31 -109 -12 -49 26
-54 124 -8 162 31 25 85 22 114 -8z m99 13 c-6 -10 -4 -10 7 0 19 17 59 15 59
-3 0 -8 -8 -15 -18 -15 -32 0 -42 -22 -42 -92 0 -61 -2 -68 -20 -68 -19 0 -20
7 -20 95 0 89 1 95 21 95 13 0 18 -4 13 -12z m240 -56 c11 -34 23 -62 26 -62
4 0 15 27 25 61 17 55 37 81 51 66 7 -7 -62 -203 -82 -234 -17 -26 -59 -31
-68 -8 -3 10 1 15 12 15 22 0 42 19 42 40 0 8 -13 51 -30 93 -35 91 -36 100
-13 95 11 -2 24 -25 37 -66z"/>
<path d="M860 1864 c-177 -38 -348 -171 -429 -334 -126 -256 -80 -541 119
-740 178 -177 429 -234 665 -151 291 103 471 419 411 721 -72 356 -413 580
-766 504z m-121 -503 c-95 -204 -176 -368 -180 -364 -4 5 -17 33 -29 63 -27
68 -38 212 -21 290 26 120 106 238 207 305 51 34 183 89 192 80 2 -1 -74 -170
-169 -374z m490 326 c117 -57 215 -178 255 -316 22 -77 21 -194 -4 -272 -43
-134 -26 -153 -216 252 -93 199 -171 367 -173 372 -6 17 71 -3 138 -36z m-145
-272 l75 -160 -80 -3 c-43 -2 -115 -2 -159 0 l-79 3 77 167 c42 92 80 164 84
160 4 -4 40 -79 82 -167z m198 -425 l56 -120 -30 -25 c-108 -91 -301 -130
-439 -89 -61 18 -153 64 -186 93 l-23 19 57 121 56 121 227 0 226 0 56 -120z"/>
<path d="M740 320 c-11 -11 -20 -30 -20 -43 0 -31 27 -67 50 -67 43 0 66 82
32 113 -24 22 -38 21 -62 -3z"/>
<path d="M948 329 c-32 -18 -19 -29 35 -29 l52 1 -24 19 c-26 22 -38 24 -63 9z"/>
</g>
</svg>
