<?xml version="1.0" standalone="no"?>
<!DOCTYPE svg PUBLIC "-//W3C//DTD SVG 20010904//EN"
 "http://www.w3.org/TR/2001/REC-SVG-20010904/DTD/svg10.dtd">
<svg version="1.0" xmlns="http://www.w3.org/2000/svg"
 width="200.000000pt" height="200.000000pt" viewBox="0 0 200.000000 200.000000"
 preserveAspectRatio="xMidYMid meet">

<g transform="translate(0.000000,200.000000) scale(0.100000,-0.100000)"
fill="#000000" stroke="none">
<path d="M0 1000 l0 -1000 1000 0 1000 0 0 1000 0 1000 -1000 0 -1000 0 0
-1000z m489 -639 c33 -92 61 -174 61 -182 0 -29 19 13 81 179 l64 172 32 0 32
0 -38 -92 c-21 -51 -59 -148 -85 -216 -48 -122 -48 -123 -78 -120 -30 3 -33 8
-99 178 -38 96 -76 192 -84 213 l-15 37 34 0 33 0 62 -169z m721 144 c0 -21
-5 -25 -30 -25 -25 0 -30 4 -30 25 0 21 5 25 30 25 25 0 30 -4 30 -25z m340
-190 l0 -215 -30 0 c-16 0 -30 5 -30 11 0 7 -10 5 -25 -5 -38 -25 -98 -21
-134 9 -83 70 -78 237 9 289 39 22 92 20 124 -5 l26 -20 0 75 0 76 30 0 30 0
0 -215z m-533 85 c18 -10 40 -34 49 -52 23 -44 23 -142 0 -186 -52 -100 -205
-95 -259 8 -22 43 -18 146 7 185 41 63 139 84 203 45z m193 -145 l0 -155 -30
0 -30 0 0 155 0 155 30 0 30 0 0 -155z"/>
<path d="M1374 358 c-30 -14 -44 -50 -44 -109 0 -43 5 -55 30 -81 26 -25 36
-29 63 -24 47 9 67 39 67 102 0 64 -14 98 -47 113 -29 13 -41 13 -69 -1z"/>
<path d="M880 342 c-26 -27 -30 -37 -30 -87 0 -49 4 -60 29 -86 71 -70 167 5
147 114 -9 49 -35 77 -78 84 -32 5 -41 1 -68 -25z"/>
</g>
</svg>
