<?xml version="1.0" standalone="no"?>
<!DOCTYPE svg PUBLIC "-//W3C//DTD SVG 20010904//EN"
 "http://www.w3.org/TR/2001/REC-SVG-20010904/DTD/svg10.dtd">
<svg version="1.0" xmlns="http://www.w3.org/2000/svg"
 width="200.000000pt" height="200.000000pt" viewBox="0 0 200.000000 200.000000"
 preserveAspectRatio="xMidYMid meet">

<g transform="translate(0.000000,200.000000) scale(0.100000,-0.100000)"
fill="#000000" stroke="none">
<path d="M0 1000 l0 -1000 1000 0 1000 0 0 1000 0 1000 -1000 0 -1000 0 0
-1000z m1840 889 c0 -5 4 -8 9 -4 5 3 19 -8 30 -24 21 -29 21 -35 19 -646 l-3
-616 -884 1 c-629 0 -888 4 -898 11 -10 9 -13 126 -13 616 0 596 0 605 21 634
11 16 25 27 30 24 5 -4 9 -1 9 4 0 8 255 11 840 11 585 0 840 -3 840 -11z
m-1245 -1484 c15 -53 31 -97 35 -100 3 -2 21 41 39 96 30 93 34 100 57 97 14
-2 24 -6 24 -10 0 -5 0 -62 0 -128 0 -100 -2 -120 -15 -120 -12 0 -15 19 -16
108 l-1 107 -34 -107 c-47 -145 -59 -146 -107 -5 l-35 102 -1 -102 c-1 -85 -4
-103 -16 -103 -15 0 -17 24 -17 215 0 19 1 37 1 40 1 3 14 5 29 5 28 0 30 -4
57 -95z m255 80 c0 -8 -9 -15 -20 -15 -11 0 -20 7 -20 15 0 8 9 15 20 15 11 0
20 -7 20 -15z m290 -24 l0 -39 38 5 c66 8 78 -15 74 -144 -2 -31 -6 -43 -17
-43 -12 0 -15 14 -15 69 0 80 -14 101 -55 83 -23 -11 -25 -17 -25 -82 0 -63
-2 -70 -20 -70 -19 0 -20 7 -20 130 0 123 1 130 20 130 17 0 20 -7 20 -39z
m210 -1 c0 -20 5 -30 15 -30 8 0 15 -7 15 -15 0 -8 -7 -15 -15 -15 -12 0 -15
-14 -15 -65 0 -51 3 -65 15 -65 8 0 15 -7 15 -15 0 -18 -41 -20 -58 -3 -7 7
-12 40 -12 79 0 54 -3 68 -17 74 -17 6 -17 7 0 19 9 7 17 22 17 33 0 23 8 33
27 33 8 0 13 -12 13 -30z m-500 -125 c0 -88 -1 -95 -20 -95 -19 0 -20 7 -20
95 0 88 1 95 20 95 19 0 20 -7 20 -95z m148 83 c9 -9 12 -9 12 0 0 7 9 12 21
12 20 0 21 -4 17 -111 -3 -102 -5 -112 -27 -130 -42 -34 -131 -20 -131 21 0
24 17 26 42 3 23 -20 71 -8 76 20 3 15 -1 17 -22 11 -58 -14 -106 27 -106 91
0 31 24 81 42 88 24 10 64 7 76 -5z"/>
<path d="M1338 1713 c7 -3 16 -2 19 1 4 3 -2 6 -13 5 -11 0 -14 -3 -6 -6z"/>
<path d="M1030 1699 c0 -5 5 -7 10 -4 6 3 10 8 10 11 0 2 -4 4 -10 4 -5 0 -10
-5 -10 -11z"/>
<path d="M1089 1684 c18 -15 40 -43 48 -62 8 -19 17 -32 19 -29 14 13 -45 91
-81 109 -11 5 -5 -3 14 -18z"/>
<path d="M564 1686 c-10 -25 26 -77 116 -170 84 -87 89 -94 93 -141 l3 -50 2
50 1 50 -89 92 c-92 95 -126 144 -116 169 3 8 3 14 0 14 -2 0 -7 -6 -10 -14z"/>
<path d="M620 1689 c14 -6 48 -31 75 -57 42 -39 41 -37 -6 11 -31 31 -65 57
-76 56 -14 0 -12 -3 7 -10z"/>
<path d="M1229 1653 l-34 -38 40 35 c22 19 42 36 44 38 2 1 0 2 -5 2 -6 0 -26
-17 -45 -37z"/>
<path d="M1025 1670 c-3 -5 -1 -10 4 -10 6 0 11 5 11 10 0 6 -2 10 -4 10 -3 0
-8 -4 -11 -10z"/>
<path d="M1023 1595 c0 -27 2 -38 4 -22 2 15 2 37 0 50 -2 12 -4 0 -4 -28z"/>
<path d="M1169 1564 c-11 -26 -18 -49 -16 -51 2 -2 14 19 25 47 11 27 19 50
16 50 -3 0 -14 -21 -25 -46z"/>
<path d="M1346 1595 c-3 -8 -1 -15 3 -15 5 0 11 7 15 15 3 8 1 15 -3 15 -5 0
-11 -7 -15 -15z"/>
<path d="M910 1581 c-5 -11 -10 -23 -10 -28 1 -4 7 3 14 16 l13 24 44 -39 c40
-34 41 -35 14 -5 -44 48 -62 55 -75 32z"/>
<path d="M770 1557 c0 -2 15 -16 33 -33 l32 -29 -29 33 c-28 30 -36 37 -36 29z"/>
<path d="M1260 1520 c-9 -6 -10 -10 -3 -10 6 0 15 5 18 10 8 12 4 12 -15 0z"/>
<path d="M1040 1501 c5 -11 17 -27 26 -36 16 -15 15 -18 -5 -38 l-21 -21 0 36
c0 20 -3 39 -7 41 -5 3 -6 -18 -4 -45 l3 -51 30 30 29 30 -23 36 c-24 37 -47
52 -28 18z"/>
<path d="M1180 1485 c-13 -16 -3 -20 24 -9 9 3 13 10 10 15 -8 13 -20 11 -34
-6z"/>
<path d="M1265 1480 c3 -5 12 -10 20 -10 8 0 32 -17 55 -38 22 -22 40 -36 40
-32 0 3 -15 20 -32 37 -43 40 -100 70 -83 43z"/>
<path d="M1094 1398 l-19 -23 22 19 c22 18 23 18 53 -7 35 -30 80 -44 130 -41
54 4 50 6 -22 14 -50 5 -75 13 -102 33 -19 15 -37 27 -39 27 -2 0 -12 -10 -23
-22z"/>
<path d="M1078 1363 c12 -2 30 -2 40 0 9 3 -1 5 -23 4 -22 0 -30 -2 -17 -4z"/>
<path d="M1140 1356 c0 -2 7 -7 16 -10 8 -3 12 -2 9 4 -6 10 -25 14 -25 6z"/>
<path d="M1185 1334 c6 -5 23 -20 40 -34 29 -24 29 -24 10 -2 -11 13 -29 28
-40 34 -11 6 -15 6 -10 2z"/>
<path d="M680 1316 c0 -2 9 -6 20 -9 11 -3 18 -1 14 4 -5 9 -34 13 -34 5z"/>
<path d="M780 1311 c0 -7 17 -31 38 -52 36 -35 38 -39 23 -56 -12 -13 -10 -13
7 2 l23 19 -27 20 c-14 11 -35 33 -45 50 -10 17 -19 25 -19 17z"/>
<path d="M673 1260 c0 -25 2 -35 4 -22 2 12 2 32 0 45 -2 12 -4 2 -4 -23z"/>
<path d="M757 1274 c17 -16 36 -38 42 -49 6 -11 11 -15 11 -9 0 17 -38 62 -63
75 -15 7 -11 2 10 -17z"/>
<path d="M1254 1263 c3 -6 -2 -16 -11 -22 -10 -6 -13 -10 -8 -11 6 0 17 5 25
10 13 8 13 11 1 22 -9 8 -12 9 -7 1z"/>
<path d="M1198 1223 c7 -3 16 -2 19 1 4 3 -2 6 -13 5 -11 0 -14 -3 -6 -6z"/>
<path d="M1179 1158 c56 -58 81 -74 81 -51 0 4 -3 3 -7 -1 -4 -3 -36 22 -72
56 l-66 63 64 -67z"/>
<path d="M680 1207 c0 -18 32 -67 49 -77 30 -16 38 -12 12 6 -12 9 -31 30 -42
48 -10 17 -19 27 -19 23z"/>
<path d="M811 1184 c0 -11 3 -14 6 -6 3 7 2 16 -1 19 -3 4 -6 -2 -5 -13z"/>
<path d="M871 1173 c-13 -13 -21 -26 -18 -29 4 -4 15 3 25 16 l18 22 36 -36
c20 -20 42 -36 50 -36 7 0 4 5 -7 11 -11 6 -33 25 -50 43 l-30 33 -24 -24z"/>
<path d="M594 1145 c-4 -14 -4 -29 0 -32 3 -4 6 3 6 13 0 11 5 25 12 32 9 9 9
12 0 12 -6 0 -14 -11 -18 -25z"/>
<path d="M685 1140 c10 -11 20 -20 23 -20 3 0 -3 9 -13 20 -10 11 -20 20 -23
20 -3 0 3 -9 13 -20z"/>
<path d="M1291 1143 c7 -12 15 -20 18 -17 3 2 -3 12 -13 22 -17 16 -18 16 -5
-5z"/>
<path d="M906 1121 c18 -11 39 -30 48 -42 9 -13 16 -18 16 -12 0 14 -67 73
-83 73 -7 0 2 -9 19 -19z"/>
<path d="M717 1093 c6 -16 8 -16 23 1 9 12 8 15 -8 13 -12 0 -18 -6 -15 -14z"/>
<path d="M1045 1103 c41 -3 56 -10 88 -41 23 -23 35 -42 32 -52 -5 -12 -4 -13
6 -2 11 10 4 21 -31 57 -42 42 -47 45 -95 43 l-50 -2 50 -3z"/>
<path d="M600 1097 c0 -17 20 -45 37 -51 16 -5 16 -5 2 6 -8 7 -21 22 -27 33
-6 11 -12 16 -12 12z"/>
<path d="M1292 1072 c-11 -25 -11 -25 4 -10 9 9 15 21 13 27 -2 6 -10 -2 -17
-17z"/>
<path d="M796 1068 c24 -28 57 -57 65 -58 4 0 -11 18 -33 40 -43 43 -63 54
-32 18z"/>
<path d="M596 975 c-37 -36 -64 -65 -59 -65 5 0 38 29 73 65 35 36 62 65 60
65 -3 -1 -36 -30 -74 -65z"/>
<path d="M790 1036 c0 -2 8 -10 18 -17 15 -13 16 -12 3 4 -13 16 -21 21 -21
13z"/>
<path d="M1312 1015 c15 -16 29 -27 31 -24 3 2 -10 15 -27 28 l-31 24 27 -28z"/>
<path d="M960 1010 c-9 -6 -10 -10 -3 -10 6 0 15 5 18 10 8 12 4 12 -15 0z"/>
<path d="M826 987 c3 -10 9 -15 12 -12 3 3 0 11 -7 18 -10 9 -11 8 -5 -6z"/>
<path d="M635 929 c-27 -33 -58 -59 -67 -59 -10 0 -18 -4 -18 -10 0 -25 31 -5
84 56 32 36 57 66 55 68 -2 2 -26 -23 -54 -55z"/>
<path d="M700 984 c0 -6 7 -19 15 -30 8 -10 14 -14 14 -9 0 6 -6 19 -14 29 -8
11 -15 15 -15 10z"/>
<path d="M1152 970 c0 -14 2 -19 5 -12 2 6 2 18 0 25 -3 6 -5 1 -5 -13z"/>
<path d="M1214 975 c-3 -8 -4 -20 -1 -27 3 -7 6 -3 6 10 1 15 5 21 13 16 7 -4
8 -3 4 4 -10 16 -15 15 -22 -3z"/>
<path d="M1378 947 c28 -37 80 -73 90 -63 2 3 -8 11 -24 18 -16 7 -44 28 -62
48 l-34 35 30 -38z"/>
<path d="M836 943 c-6 -14 -5 -15 5 -6 7 7 10 15 7 18 -3 3 -9 -2 -12 -12z"/>
<path d="M1288 909 c30 -31 59 -67 65 -80 7 -12 19 -24 27 -26 10 -3 9 -1 -2
7 -10 6 -18 17 -18 23 0 7 -28 39 -62 72 l-63 60 53 -56z"/>
<path d="M1169 928 c7 -10 23 -17 35 -17 20 1 20 2 1 6 -11 3 -27 10 -35 17
-13 10 -13 9 -1 -6z"/>
<path d="M783 923 c9 -2 23 -2 30 0 6 3 -1 5 -18 5 -16 0 -22 -2 -12 -5z"/>
<path d="M1437 825 c-15 -14 -24 -25 -19 -25 5 0 19 11 32 25 30 32 23 32 -13
0z"/>
<path d="M936 384 c-23 -23 -21 -91 3 -104 27 -14 37 -13 55 6 32 32 11 114
-29 114 -7 0 -21 -7 -29 -16z"/>
</g>
</svg>
