<?xml version="1.0" standalone="no"?>
<!DOCTYPE svg PUBLIC "-//W3C//DTD SVG 20010904//EN"
 "http://www.w3.org/TR/2001/REC-SVG-20010904/DTD/svg10.dtd">
<svg version="1.0" xmlns="http://www.w3.org/2000/svg"
 width="200.000000pt" height="200.000000pt" viewBox="0 0 200.000000 200.000000"
 preserveAspectRatio="xMidYMid meet">

<g transform="translate(0.000000,200.000000) scale(0.100000,-0.100000)"
fill="#000000" stroke="none">
<path d="M0 1000 l0 -1000 1000 0 1000 0 0 1000 0 1000 -1000 0 -1000 0 0
-1000z m1300 740 l0 -40 -90 0 -90 0 0 -180 0 -180 180 0 180 0 0 90 0 90 40
0 40 0 0 -265 0 -265 -40 0 -40 0 0 90 0 90 -180 0 -180 0 0 -180 0 -180 90 0
90 0 0 -40 0 -40 -265 0 -265 0 0 40 0 40 90 0 90 0 0 180 0 180 -180 0 -180
0 0 -90 0 -90 -40 0 -40 0 0 265 0 265 40 0 40 0 0 -90 0 -90 180 0 180 0 0
180 0 180 -90 0 -90 0 0 40 0 40 265 0 265 0 0 -40z m-842 -1315 c37 -31 50
-67 45 -120 -6 -70 -55 -115 -123 -115 -51 0 -82 20 -106 67 -35 69 -10 159
51 184 43 17 102 10 133 -16z m355 -22 c-2 -36 0 -44 9 -35 17 17 68 15 90 -5
24 -22 27 -173 3 -173 -17 0 -18 7 -15 72 2 54 -13 88 -39 88 -31 0 -44 -28
-45 -96 -1 -54 -4 -64 -18 -64 -16 0 -18 13 -18 130 0 118 2 130 18 130 15 0
17 -8 15 -47z m527 -83 c0 -109 -2 -130 -15 -130 -8 0 -15 5 -15 12 0 9 -3 9
-12 0 -32 -32 -116 7 -119 55 -5 78 23 123 76 123 17 0 36 -5 42 -11 7 -7 10
3 8 35 -1 39 1 46 17 46 17 0 18 -11 18 -130z m-620 90 c0 -20 5 -30 15 -30 8
0 15 -7 15 -15 0 -8 -7 -15 -15 -15 -12 0 -15 -14 -15 -65 0 -51 3 -65 15 -65
8 0 15 -7 15 -15 0 -18 -41 -20 -58 -3 -7 7 -12 39 -12 76 0 41 -5 68 -14 77
-12 12 -15 12 -20 -1 -3 -8 -11 -12 -16 -9 -25 15 -40 -17 -40 -86 0 -62 -2
-69 -20 -69 -19 0 -20 7 -20 95 0 78 3 95 15 95 8 0 15 -5 15 -12 0 -9 3 -9
12 0 7 7 29 12 50 12 33 0 38 3 38 23 0 27 7 37 27 37 8 0 13 -12 13 -30z
m404 -61 c55 -66 18 -158 -65 -159 -51 0 -84 37 -84 95 0 90 93 130 149 64z
m406 13 c16 -13 24 -32 27 -69 5 -45 2 -55 -20 -77 -34 -34 -86 -35 -123 -3
-22 20 -27 32 -27 72 0 40 5 52 27 72 33 28 85 30 116 5z m118 -13 l20 -31 23
31 c12 17 31 31 41 31 24 0 23 -8 -12 -54 l-30 -39 36 -48 c35 -48 35 -49 12
-49 -16 0 -30 10 -41 30 -10 17 -22 30 -27 30 -5 0 -17 -13 -27 -30 -11 -20
-25 -30 -41 -30 -23 0 -23 1 12 48 31 43 34 51 22 68 -49 72 -50 74 -28 74 12
0 28 -13 40 -31z"/>
<path d="M342 410 c-13 -5 -30 -26 -38 -46 -13 -31 -13 -42 -2 -78 37 -117
191 -58 158 62 -5 22 -16 45 -24 51 -19 16 -68 22 -94 11z"/>
<path d="M1226 328 c-22 -31 -20 -64 4 -88 25 -25 42 -25 63 -2 32 35 9 112
-33 112 -10 0 -26 -10 -34 -22z"/>
<path d="M1027 332 c-34 -37 -10 -112 35 -112 43 0 65 82 30 113 -24 22 -45
21 -65 -1z"/>
<path d="M1440 330 c-11 -11 -20 -31 -20 -45 0 -25 31 -65 51 -65 32 0 49 22
49 65 0 34 -5 47 -19 55 -28 14 -38 13 -61 -10z"/>
</g>
</svg>
