<?xml version="1.0" standalone="no"?>
<!DOCTYPE svg PUBLIC "-//W3C//DTD SVG 20010904//EN"
 "http://www.w3.org/TR/2001/REC-SVG-20010904/DTD/svg10.dtd">
<svg version="1.0" xmlns="http://www.w3.org/2000/svg"
 width="200.000000pt" height="200.000000pt" viewBox="0 0 200.000000 200.000000"
 preserveAspectRatio="xMidYMid meet">

<g transform="translate(0.000000,200.000000) scale(0.100000,-0.100000)"
fill="#000000" stroke="none">
<path d="M0 1000 l0 -1000 1000 0 1000 0 0 1000 0 1000 -1000 0 -1000 0 0
-1000z m1820 912 c0 -4 10 -8 23 -9 25 -2 69 -52 62 -70 -2 -7 0 -15 5 -18 11
-7 14 -1135 2 -1135 -5 0 -8 -15 -7 -32 1 -18 -3 -41 -9 -50 -10 -17 -66 -18
-896 -17 -714 0 -888 2 -902 13 -17 12 -18 53 -17 612 1 329 5 613 10 629 8
29 60 73 80 68 5 -2 9 1 9 7 0 6 305 9 820 10 451 0 820 -3 820 -8z m-700
-1517 c0 -43 1 -44 25 -35 30 11 70 -1 79 -25 3 -9 6 -43 6 -76 0 -46 -3 -59
-15 -59 -12 0 -15 13 -15 58 0 60 -11 82 -42 82 -25 0 -38 -31 -38 -89 0 -39
-4 -51 -15 -51 -12 0 -15 20 -15 120 0 100 3 120 15 120 11 0 15 -12 15 -45z
m-430 -65 l0 -100 45 0 c33 0 45 -4 45 -15 0 -12 -13 -15 -60 -15 l-60 0 0
115 c0 96 3 115 15 115 12 0 15 -18 15 -100z m158 88 c-3 -7 -11 -13 -18 -13
-7 0 -15 6 -17 13 -3 7 4 12 17 12 13 0 20 -5 18 -12z m472 -27 c0 -10 9 -21
20 -24 26 -7 26 -27 0 -27 -19 0 -21 -5 -18 -57 2 -48 6 -58 21 -57 9 1 17 -4
17 -12 0 -9 -11 -14 -30 -14 -36 0 -50 27 -50 96 0 24 -4 44 -10 44 -5 0 -10
7 -10 15 0 8 4 15 9 15 5 0 11 9 14 20 7 25 37 26 37 1z m-480 -106 c0 -69 -3
-85 -15 -85 -12 0 -15 15 -15 78 0 43 3 82 7 85 18 18 23 0 23 -78z m195 -24
c0 -96 -2 -104 -24 -122 -30 -24 -109 -27 -118 -4 -8 23 1 27 31 16 37 -15 76
2 76 32 0 20 -4 23 -34 19 -47 -6 -74 12 -82 53 -8 43 10 89 39 102 12 6 42 9
67 8 l45 -2 0 -102z"/>
<path d="M926 318 c-22 -31 -20 -61 4 -83 17 -15 24 -16 45 -7 24 11 32 37 25
82 -5 35 -52 40 -74 8z"/>
</g>
</svg>
