<?xml version="1.0" standalone="no"?>
<!DOCTYPE svg PUBLIC "-//W3C//DTD SVG 20010904//EN"
 "http://www.w3.org/TR/2001/REC-SVG-20010904/DTD/svg10.dtd">
<svg version="1.0" xmlns="http://www.w3.org/2000/svg"
 width="200.000000pt" height="200.000000pt" viewBox="0 0 200.000000 200.000000"
 preserveAspectRatio="xMidYMid meet">

<g transform="translate(0.000000,200.000000) scale(0.100000,-0.100000)"
fill="#000000" stroke="none">
<path d="M0 1000 l0 -1000 1000 0 1000 0 0 1000 0 1000 -1000 0 -1000 0 0
-1000z m681 -569 c17 -13 23 -29 23 -56 0 -53 -30 -75 -100 -75 -36 0 -54 -4
-55 -12 -1 -7 -3 -26 -4 -43 -4 -52 -5 -55 -20 -55 -13 0 -15 21 -15 130 l0
130 74 0 c57 0 79 -4 97 -19z m203 -72 c17 -14 26 -30 26 -50 l0 -29 -70 0
-70 0 12 -25 c15 -33 51 -42 83 -21 46 30 62 13 23 -24 -32 -29 -92 -27 -123
5 -35 34 -35 106 0 140 30 31 82 33 119 4z m208 4 c11 -12 17 -44 20 -94 l3
-75 -71 -2 c-73 -1 -84 3 -97 41 -10 27 31 63 81 71 45 7 57 30 22 41 -23 7
-60 -2 -60 -16 0 -5 -9 -9 -20 -9 -11 0 -20 5 -20 10 0 6 9 19 20 30 26 26
100 28 122 3z m196 1 c24 -17 30 -44 8 -44 -7 0 -19 7 -26 15 -30 36 -80 5
-80 -50 0 -59 43 -82 80 -45 21 21 50 27 50 10 0 -6 -11 -22 -25 -35 -30 -31
-86 -34 -114 -6 -23 23 -36 79 -26 110 17 55 86 78 133 45z m197 -9 c14 -13
25 -36 25 -50 0 -24 -2 -25 -70 -25 -74 0 -83 -7 -50 -40 24 -24 53 -26 74 -5
15 15 46 21 46 8 0 -4 -10 -17 -22 -30 -24 -25 -75 -31 -110 -12 -31 17 -49
70 -37 112 18 68 96 90 144 42z"/>
<path d="M545 383 c2 -21 4 -41 4 -45 2 -15 89 -8 105 8 37 37 5 74 -63 74
l-48 0 2 -37z"/>
<path d="M794 336 c-27 -20 -14 -28 42 -24 46 3 47 4 30 21 -21 21 -46 22 -72
3z"/>
<path d="M989 254 c-10 -13 -10 -17 2 -25 28 -18 79 -1 79 26 0 21 -64 20 -81
-1z"/>
<path d="M1398 339 c-31 -17 -20 -29 27 -29 46 0 54 7 33 28 -15 15 -37 15
-60 1z"/>
</g>
</svg>
