<?xml version="1.0" standalone="no"?>
<!DOCTYPE svg PUBLIC "-//W3C//DTD SVG 20010904//EN"
 "http://www.w3.org/TR/2001/REC-SVG-20010904/DTD/svg10.dtd">
<svg version="1.0" xmlns="http://www.w3.org/2000/svg"
 width="200.000000pt" height="200.000000pt" viewBox="0 0 200.000000 200.000000"
 preserveAspectRatio="xMidYMid meet">

<g transform="translate(0.000000,200.000000) scale(0.100000,-0.100000)"
fill="#000000" stroke="none">
<path d="M0 1000 l0 -1000 1000 0 1000 0 0 1000 0 1000 -1000 0 -1000 0 0
-1000z m1872 872 l33 -32 0 -623 0 -622 -450 -3 c-283 -1 -468 1 -499 8 -33 7
-52 7 -61 0 -8 -7 -147 -9 -406 -8 l-394 3 0 622 0 621 25 27 c14 15 34 31 45
36 11 4 392 7 847 6 l828 -2 32 -33z m-1262 -1472 l0 -40 45 0 45 0 0 40 c0
29 4 40 15 40 12 0 15 -17 15 -95 0 -78 -3 -95 -15 -95 -11 0 -15 12 -15 45
l0 45 -45 0 -45 0 0 -45 c0 -33 -4 -45 -15 -45 -12 0 -15 17 -15 95 0 78 3 95
15 95 11 0 15 -11 15 -40z m254 -26 c9 -8 16 -26 16 -40 0 -22 -4 -24 -45 -24
-32 0 -45 -4 -45 -14 0 -18 33 -29 61 -21 15 5 20 3 17 -6 -3 -8 -21 -15 -40
-17 -41 -4 -68 24 -68 68 0 59 65 93 104 54z m134 4 c7 -7 12 -38 12 -69 l0
-58 -46 2 c-78 3 -89 60 -16 82 46 13 43 39 -3 32 -33 -5 -44 1 -28 16 11 12
68 8 81 -5z m71 -36 c8 -23 18 -42 21 -42 4 0 13 18 20 41 13 40 26 56 37 46
9 -10 -42 -132 -57 -135 -10 -2 -22 18 -38 60 -25 72 -27 81 -10 76 6 -2 18
-23 27 -46z m199 36 c7 -7 12 -25 12 -40 0 -27 -2 -28 -45 -28 -25 0 -45 -4
-45 -9 0 -16 29 -33 52 -30 13 2 24 -1 26 -6 1 -6 -17 -10 -40 -10 -37 0 -45
4 -56 28 -25 51 5 107 57 107 15 0 32 -5 39 -12z m152 -8 c5 -10 10 -41 10
-69 0 -39 -4 -51 -15 -51 -12 0 -15 13 -15 55 0 40 -4 57 -15 61 -27 11 -45
-16 -45 -67 0 -37 -4 -49 -15 -49 -12 0 -15 14 -15 69 l0 68 50 2 c39 0 52 -3
60 -19z"/>
<path d="M731 1586 c-49 -18 -111 -74 -132 -120 -23 -52 -24 -136 -2 -184 17
-38 370 -407 388 -407 6 0 90 81 187 181 193 197 217 233 218 322 0 165 -193
274 -355 199 l-50 -24 -50 24 c-56 26 -146 30 -204 9z"/>
<path d="M802 358 c-20 -20 -14 -28 23 -28 33 0 35 2 25 20 -12 23 -30 26 -48
8z"/>
<path d="M943 313 c-7 -2 -13 -13 -13 -24 0 -25 36 -25 49 0 15 27 -2 38 -36
24z"/>
<path d="M1202 358 c-20 -20 -14 -28 23 -28 19 0 35 4 35 8 0 12 -22 32 -35
32 -6 0 -16 -5 -23 -12z"/>
</g>
</svg>
