<?xml version="1.0" standalone="no"?>
<!DOCTYPE svg PUBLIC "-//W3C//DTD SVG 20010904//EN"
 "http://www.w3.org/TR/2001/REC-SVG-20010904/DTD/svg10.dtd">
<svg version="1.0" xmlns="http://www.w3.org/2000/svg"
 width="200.000000pt" height="200.000000pt" viewBox="0 0 200.000000 200.000000"
 preserveAspectRatio="xMidYMid meet">

<g transform="translate(0.000000,200.000000) scale(0.100000,-0.100000)"
fill="#000000" stroke="none">
<path d="M0 1000 l0 -1000 1000 0 1000 0 0 1000 0 1000 -1000 0 -1000 0 0
-1000z m1627 659 l-77 -39 -568 2 -567 3 -67 32 c-38 18 -68 34 -68 37 0 4
321 6 713 6 l712 -1 -78 -40z m-778 -144 c-25 -13 -51 -31 -58 -39 -19 -23
-37 -20 -121 24 l-75 39 150 0 150 0 -46 -24z m471 -6 c-79 -44 -100 -51 -115
-39 -7 6 -37 24 -66 40 l-54 30 145 0 145 0 -55 -31z m-204 -17 c53 -27 117
-100 132 -150 29 -95 1 -202 -69 -269 -33 -31 -106 -69 -116 -60 -2 3 11 10
29 16 88 29 158 131 158 231 0 107 -81 213 -184 241 -95 26 -209 -9 -271 -83
-41 -48 -55 -90 -55 -158 0 -68 14 -110 55 -158 45 -54 109 -85 189 -93 l71
-6 -61 -2 c-50 -1 -72 5 -121 29 -97 48 -143 124 -143 232 1 119 70 210 190
249 43 14 152 4 196 -19z m-70 -98 c9 -24 14 -55 12 -69 -4 -20 0 -29 21 -39
46 -25 113 -118 96 -134 -15 -15 -112 -6 -145 14 l-34 19 -45 -22 c-44 -23
-90 -28 -123 -15 -16 7 -16 10 2 49 11 25 35 53 59 70 31 22 40 35 41 58 1 39
24 101 46 126 16 18 19 18 35 3 10 -9 26 -36 35 -60z m-211 -379 l60 -35 -145
0 -145 0 65 34 c36 19 74 35 85 35 11 0 47 -15 80 -34z m485 0 l65 -33 -143
-4 c-79 -2 -146 0 -149 5 -2 4 2 7 9 7 8 0 34 13 58 29 58 38 81 37 160 -4z
m330 -162 l75 -38 -368 -3 c-203 -1 -531 -1 -730 0 l-362 3 75 37 75 37 580 0
581 1 74 -37z m-1388 -400 c38 -44 30 -90 -20 -117 -15 -9 -22 -15 -16 -16 11
0 74 -89 74 -103 0 -4 -9 -7 -20 -7 -13 0 -31 19 -54 55 -35 54 -68 74 -102
61 -12 -5 -15 -18 -12 -61 3 -47 0 -55 -14 -55 -16 0 -18 13 -18 130 l0 130
83 0 c67 0 87 -3 99 -17z m508 2 c0 -8 -9 -15 -20 -15 -11 0 -20 7 -20 15 0 8
9 15 20 15 11 0 20 -7 20 -15z m270 0 c0 -8 -9 -15 -20 -15 -11 0 -20 7 -20
15 0 8 9 15 20 15 11 0 20 -7 20 -15z m-566 -77 c14 -13 26 -34 28 -48 3 -24
1 -25 -64 -28 -72 -3 -84 -14 -52 -46 19 -20 44 -20 70 -1 40 31 60 11 24 -25
-29 -29 -94 -27 -125 5 -19 18 -25 35 -25 70 0 35 6 52 25 70 32 33 84 33 119
3z m97 10 c0 -7 10 -40 23 -73 l23 -60 22 68 c21 61 42 89 57 75 3 -3 -10 -45
-28 -94 -45 -119 -58 -119 -104 -1 -19 49 -34 91 -34 93 0 11 40 2 41 -8z
m199 -83 c0 -88 -1 -95 -20 -95 -19 0 -20 7 -20 95 0 88 1 95 20 95 19 0 20
-7 20 -95z m164 79 c31 -30 14 -45 -26 -23 -22 12 -68 4 -68 -11 0 -5 19 -14
43 -21 52 -13 77 -35 77 -65 0 -50 -100 -74 -140 -34 -11 11 -20 25 -20 30 0
15 29 12 46 -5 20 -19 58 -19 74 0 10 12 8 16 -15 25 -14 5 -32 10 -38 10 -21
0 -54 28 -60 50 -13 49 88 84 127 44z m106 -79 c0 -88 -1 -95 -20 -95 -19 0
-20 7 -20 95 0 88 1 95 20 95 19 0 20 -7 20 -95z m178 73 c61 -66 26 -168 -58
-168 -43 0 -75 26 -85 69 -14 64 26 121 85 121 25 0 43 -7 58 -22z m102 10 c0
-9 3 -9 12 0 17 17 74 15 92 -4 12 -11 16 -36 16 -95 0 -69 -2 -79 -17 -79
-16 0 -18 9 -16 65 1 46 -3 70 -14 80 -39 40 -77 -7 -71 -90 3 -47 0 -55 -14
-55 -16 0 -18 11 -18 95 0 78 3 95 15 95 8 0 15 -5 15 -12z m312 -5 c11 -12
17 -44 20 -95 3 -69 1 -78 -14 -78 -10 0 -18 5 -18 10 0 7 -7 7 -20 0 -31 -17
-91 -8 -106 15 -11 16 -11 25 -1 45 12 24 24 30 96 47 33 8 33 9 17 26 -21 21
-50 22 -70 2 -17 -17 -46 -20 -46 -5 0 6 9 19 20 30 26 26 100 28 122 3z m98
5 c0 -9 3 -9 12 0 7 7 23 12 36 12 17 0 22 -5 20 -17 -2 -10 -10 -17 -17 -15
-29 6 -41 -20 -41 -89 0 -62 -2 -69 -20 -69 -19 0 -20 7 -20 95 0 78 3 95 15
95 8 0 15 -5 15 -12z m140 -59 l24 -72 24 72 c18 55 28 71 43 71 17 0 15 -9
-20 -111 -43 -120 -62 -149 -98 -149 -31 0 -30 26 1 34 14 3 26 14 28 24 4 14
-22 96 -57 185 -5 12 -2 17 12 17 14 0 24 -17 43 -71z"/>
<path d="M975 1400 c-8 -16 -15 -45 -15 -65 0 -34 1 -35 41 -35 l41 0 -7 43
c-6 38 -29 87 -40 87 -2 0 -11 -13 -20 -30z"/>
<path d="M970 1268 c0 -7 6 -21 14 -30 11 -15 14 -14 30 13 l17 29 -30 0 c-18
0 -31 -5 -31 -12z"/>
<path d="M890 1234 c-22 -20 -40 -43 -40 -50 0 -19 51 -18 95 0 l35 15 -21 35
c-12 20 -23 36 -25 36 -2 0 -22 -16 -44 -36z"/>
<path d="M1032 1238 c-16 -43 1 -59 69 -66 l52 -5 -19 32 c-16 27 -69 71 -85
71 -3 0 -10 -14 -17 -32z"/>
<path d="M113 400 l2 -40 52 0 c49 0 83 17 83 40 0 24 -34 40 -86 40 l-54 0 3
-40z"/>
<path d="M384 356 c-27 -20 -14 -28 42 -24 46 3 47 4 30 21 -21 21 -46 22 -72
3z"/>
<path d="M1127 352 c-34 -37 -10 -112 35 -112 43 0 65 82 30 113 -24 22 -45
21 -65 -1z"/>
<path d="M1538 279 c-25 -14 -22 -28 6 -35 29 -7 66 11 66 31 0 17 -46 20 -72
4z"/>
</g>
</svg>
