<?xml version="1.0" standalone="no"?>
<!DOCTYPE svg PUBLIC "-//W3C//DTD SVG 20010904//EN"
 "http://www.w3.org/TR/2001/REC-SVG-20010904/DTD/svg10.dtd">
<svg version="1.0" xmlns="http://www.w3.org/2000/svg"
 width="200.000000pt" height="200.000000pt" viewBox="0 0 200.000000 200.000000"
 preserveAspectRatio="xMidYMid meet">

<g transform="translate(0.000000,200.000000) scale(0.100000,-0.100000)"
fill="#000000" stroke="none">
<path d="M0 1000 l0 -1000 1000 0 1000 0 0 1000 0 1000 -1000 0 -1000 0 0
-1000z m1054 594 c13 -5 13 -8 1 -20 -7 -8 -18 -14 -23 -14 -15 0 -22 28 -9
34 7 2 13 5 14 5 1 1 8 -2 17 -5z m-116 -86 c-1 -69 -1 -70 -7 -23 -3 28 -4
60 -2 73 7 43 11 21 9 -50z m82 26 c0 -2 -12 -4 -27 -4 -21 0 -24 3 -14 9 13
8 41 5 41 -5z m224 -33 c16 -16 25 -34 22 -39 -3 -5 9 -35 28 -66 89 -148 69
-321 -50 -440 -27 -27 -74 -61 -104 -75 -47 -22 -69 -26 -150 -26 -62 0 -102
5 -115 13 l-20 14 20 -8 c11 -3 56 -9 100 -11 104 -6 173 18 250 88 130 120
152 302 53 454 -17 28 -31 54 -30 59 2 5 -7 19 -19 33 l-23 23 -53 -52 c-29
-29 -53 -57 -53 -64 0 -20 35 -43 57 -38 15 4 25 -2 41 -28 11 -18 23 -46 26
-63 l6 -30 -11 30 c-7 17 -21 43 -31 58 -16 23 -23 26 -35 16 -11 -10 -20 -7
-46 19 l-32 32 65 65 c35 36 67 65 70 65 4 0 19 -13 34 -29z m-311 -166 c131
-46 138 -50 112 -69 -19 -14 -17 -18 60 -95 44 -45 83 -81 87 -81 3 0 10 9 13
21 4 11 9 18 12 15 3 -3 -7 -26 -21 -51 -26 -44 -111 -105 -146 -105 -8 1 0 7
18 15 17 8 32 18 32 22 0 10 -142 153 -152 153 -4 0 -14 -7 -23 -16 -9 -9 -17
-15 -19 -13 -6 9 -83 239 -80 239 3 0 50 -16 107 -35z m304 -142 c-3 -10 -5
-2 -5 17 0 19 2 27 5 18 2 -10 2 -26 0 -35z m-10 -45 c-3 -8 -6 -5 -6 6 -1 11
2 17 5 13 3 -3 4 -12 1 -19z m-404 -66 c17 -17 25 -35 22 -44 -5 -11 8 -23 46
-42 29 -14 47 -26 40 -26 -16 0 -71 28 -93 48 -12 10 -15 19 -8 27 7 8 2 19
-15 35 l-25 24 -55 -54 c-30 -30 -55 -59 -55 -66 0 -18 36 -45 53 -39 9 4 33
-7 58 -24 23 -17 38 -31 34 -31 -4 0 -24 12 -42 26 -26 19 -38 23 -46 15 -8
-8 -20 -3 -44 21 l-33 32 62 63 c34 35 65 63 68 63 4 0 18 -13 33 -28z m195
-119 c-10 -2 -28 -2 -40 0 -13 2 -5 4 17 4 22 1 32 -1 23 -4z m-377 -602 c16
-16 29 -34 29 -40 0 -19 -28 -12 -54 14 -28 28 -63 32 -92 11 -28 -22 -8 -47
50 -62 72 -18 96 -38 96 -79 0 -61 -78 -94 -154 -65 -25 9 -60 62 -49 74 13
13 30 5 41 -18 23 -51 139 -39 125 13 -5 20 -49 41 -85 41 -11 0 -33 13 -49
30 -23 22 -29 35 -24 52 11 38 43 58 92 58 36 0 50 -6 74 -29z m509 14 c0 -8
-9 -15 -20 -15 -11 0 -20 7 -20 15 0 8 9 15 20 15 11 0 20 -7 20 -15z m290
-115 c0 -123 -1 -130 -20 -130 -19 0 -20 7 -20 130 0 123 1 130 20 130 19 0
20 -7 20 -130z m-580 35 c35 -38 33 -110 -4 -142 -53 -45 -130 -22 -142 42
-13 74 21 125 84 125 28 0 45 -7 62 -25z m200 -2 c19 -25 20 -28 5 -31 -9 -2
-24 3 -34 12 -10 9 -25 16 -34 16 -20 0 -47 -37 -47 -65 0 -29 28 -65 50 -65
11 0 25 9 32 20 13 20 48 28 48 11 0 -4 -9 -20 -21 -35 -27 -34 -77 -35 -115
-3 -23 20 -27 31 -26 73 0 40 5 53 27 71 38 33 87 31 115 -4z m90 -68 c0 -88
-1 -95 -20 -95 -19 0 -20 7 -20 95 0 88 1 95 20 95 19 0 20 -7 20 -95z m182
78 c11 -12 17 -44 20 -95 3 -69 1 -78 -14 -78 -10 0 -18 5 -18 10 0 7 -6 7
-19 0 -44 -23 -100 -7 -115 33 -8 25 35 67 71 68 15 0 36 4 47 8 17 7 17 8 2
24 -21 21 -50 22 -70 2 -17 -17 -46 -20 -46 -5 0 6 9 19 20 30 26 26 100 28
122 3z"/>
<path d="M768 279 c-38 -22 -15 -119 28 -119 22 0 54 38 54 65 0 26 -31 65
-52 65 -7 0 -21 -5 -30 -11z"/>
<path d="M1238 199 c-25 -14 -22 -28 6 -35 29 -7 66 11 66 31 0 17 -46 20 -72
4z"/>
</g>
</svg>
