<?xml version="1.0" standalone="no"?>
<!DOCTYPE svg PUBLIC "-//W3C//DTD SVG 20010904//EN"
 "http://www.w3.org/TR/2001/REC-SVG-20010904/DTD/svg10.dtd">
<svg version="1.0" xmlns="http://www.w3.org/2000/svg"
 width="200.000000pt" height="200.000000pt" viewBox="0 0 200.000000 200.000000"
 preserveAspectRatio="xMidYMid meet">

<g transform="translate(0.000000,200.000000) scale(0.100000,-0.100000)"
fill="#000000" stroke="none">
<path d="M0 1000 l0 -1000 1000 0 1000 0 0 1000 0 1000 -1000 0 -1000 0 0
-1000z m1059 693 c24 -76 46 -146 48 -155 4 -14 -1 -18 -26 -18 -26 0 -31 -4
-31 -23 0 -18 10 -26 49 -40 31 -11 63 -33 90 -62 24 -26 50 -45 62 -45 19 0
20 4 15 35 l-7 35 167 0 166 0 -58 -43 c-72 -52 -185 -131 -202 -141 -8 -5
-16 2 -22 19 -7 19 -16 26 -32 23 -18 -3 -22 -10 -24 -55 -2 -36 -12 -71 -35
-113 -26 -48 -29 -63 -19 -75 10 -12 15 -12 36 2 14 9 27 14 29 11 3 -2 25
-65 49 -139 24 -74 48 -143 52 -154 8 -21 1 -16 -184 119 l-83 61 26 20 c22
18 24 23 12 39 -12 17 -18 18 -47 8 -42 -15 -118 -15 -160 0 -29 10 -35 9 -47
-8 -12 -16 -10 -21 13 -39 l26 -21 -103 -75 c-57 -41 -118 -85 -135 -97 l-32
-22 50 153 c28 83 52 154 54 156 2 2 14 -3 28 -12 21 -14 26 -15 37 -1 10 12
7 24 -16 66 -18 33 -30 74 -34 112 -5 53 -9 61 -28 64 -17 3 -24 -3 -29 -23
-4 -14 -12 -24 -18 -22 -6 3 -69 46 -140 96 l-128 91 166 0 167 0 -7 -35 c-5
-31 -4 -35 15 -35 12 0 38 19 62 45 27 29 59 51 90 62 39 14 49 22 49 40 0 19
-5 23 -31 23 -25 0 -30 4 -27 18 18 66 94 292 98 292 4 0 25 -62 49 -137z
m-409 -1228 c0 -11 -11 -15 -40 -15 l-40 0 0 -115 c0 -108 -1 -115 -20 -115
-19 0 -20 7 -20 115 l0 115 -45 0 c-35 0 -43 3 -39 15 9 22 204 22 204 0z
m590 -116 c0 -113 -2 -130 -16 -127 -8 2 -15 6 -15 11 1 4 1 61 1 127 0 100 3
120 15 120 13 0 15 -21 15 -131z m88 119 c-7 -19 -38 -22 -38 -4 0 10 9 16 21
16 12 0 19 -5 17 -12z m-388 -28 c0 -20 5 -30 15 -30 8 0 15 -7 15 -15 0 -8
-7 -15 -15 -15 -12 0 -15 -14 -15 -65 0 -51 3 -65 15 -65 8 0 15 -7 15 -15 0
-18 -41 -20 -58 -3 -7 7 -12 40 -12 79 0 55 -3 68 -17 71 -16 3 -16 4 0 20 9
9 17 25 17 36 0 22 8 32 27 32 8 0 13 -12 13 -30z m470 0 c0 -20 5 -30 15 -30
8 0 15 -7 15 -15 0 -8 -7 -15 -15 -15 -12 0 -15 -13 -15 -60 0 -49 3 -61 20
-70 29 -16 24 -30 -10 -30 -38 0 -47 20 -44 98 2 48 -1 62 -12 62 -19 0 -18
26 2 34 9 3 14 12 11 20 -5 14 10 36 25 36 4 0 8 -13 8 -30z m-586 -52 c37
-32 39 -107 6 -143 -23 -25 -68 -33 -105 -19 -21 8 -45 56 -45 89 0 31 24 81
42 88 32 13 78 6 102 -15z m310 6 c11 -10 16 -34 16 -72 0 -31 3 -66 6 -78 5
-20 2 -21 -62 -22 -82 -2 -104 9 -104 48 0 35 27 55 88 65 44 7 50 13 30 33
-17 17 -48 15 -69 -4 -10 -9 -25 -14 -34 -12 -15 3 -14 6 5 31 17 22 29 27 65
27 26 0 50 -6 59 -16z m189 -76 c-1 -75 -5 -94 -17 -96 -14 -3 -16 11 -16 92
0 85 2 96 18 96 15 0 17 -10 15 -92z m192 32 c10 -34 21 -63 25 -65 3 -2 16
25 29 61 16 46 28 64 41 64 15 0 13 -12 -20 -104 -45 -128 -62 -156 -95 -156
-30 0 -34 25 -5 33 41 11 37 40 -28 215 -2 7 4 12 15 12 15 0 24 -13 38 -60z"/>
<path d="M935 1385 c-69 -37 -95 -80 -95 -155 0 -58 15 -93 57 -131 62 -58
152 -61 217 -7 48 39 67 78 68 137 0 95 -63 162 -160 168 -39 3 -66 -1 -87
-12z"/>
<path d="M736 364 c-33 -32 -11 -114 30 -114 22 0 54 38 54 65 0 27 -32 65
-54 65 -8 0 -22 -7 -30 -16z"/>
<path d="M1095 303 c-54 -10 -65 -14 -65 -28 0 -34 61 -30 81 6 12 24 11 27
-16 22z"/>
</g>
</svg>
