<?xml version="1.0" standalone="no"?>
<!DOCTYPE svg PUBLIC "-//W3C//DTD SVG 20010904//EN"
 "http://www.w3.org/TR/2001/REC-SVG-20010904/DTD/svg10.dtd">
<svg version="1.0" xmlns="http://www.w3.org/2000/svg"
 width="200.000000pt" height="200.000000pt" viewBox="0 0 200.000000 200.000000"
 preserveAspectRatio="xMidYMid meet">

<g transform="translate(0.000000,200.000000) scale(0.100000,-0.100000)"
fill="#000000" stroke="none">
<path d="M0 1000 l0 -1000 1000 0 1000 0 0 1000 0 1000 -1000 0 -1000 0 0
-1000z m1867 867 l28 -27 3 -620 2 -620 -232 1 c-128 0 -258 4 -288 8 -30 5
-57 5 -60 2 -3 -4 -278 -8 -613 -8 l-607 -1 2 618 c3 602 4 618 23 640 11 12
29 26 40 31 11 4 392 7 847 6 l828 -2 27 -28z m-1287 -1407 l0 -90 109 0 110
0 -1 88 -2 87 32 3 32 3 0 -216 0 -216 -31 3 -32 3 2 98 2 97 -110 0 -111 0 0
-100 0 -100 -32 0 -33 0 0 215 0 215 33 0 32 0 0 -90z m779 -88 c1 -98 -1
-195 -4 -215 -6 -32 -11 -37 -34 -37 l-26 0 0 215 0 215 30 0 31 0 3 -178z
m131 -37 l0 -215 -30 0 -30 0 0 215 0 215 30 0 30 0 0 -215z m-333 85 c38 -23
60 -62 66 -118 l5 -42 -119 0 c-65 0 -119 -2 -119 -4 0 -24 28 -70 51 -81 42
-22 67 -18 101 15 49 50 92 36 63 -20 -44 -85 -204 -80 -250 9 -22 43 -22 138
-1 183 35 73 133 101 203 58z"/>
<path d="M847 1760 c-15 -5 -50 -24 -77 -44 -28 -20 -57 -36 -64 -36 -17 0
-119 -98 -162 -154 -26 -35 -29 -47 -29 -112 0 -67 2 -75 33 -111 18 -21 53
-81 78 -133 25 -52 49 -102 53 -110 4 -8 4 -28 -1 -45 -36 -128 107 -230 220
-157 19 13 25 12 47 -2 32 -21 173 -40 231 -31 32 4 54 16 77 39 l33 33 36
-37 c59 -62 144 -64 203 -4 33 33 55 101 40 125 -4 6 -8 44 -10 84 -2 78 -21
119 -67 143 -21 12 -23 19 -23 95 0 74 -3 87 -33 138 -17 31 -32 63 -32 71 0
8 -21 45 -47 83 -54 76 -117 119 -232 155 -67 21 -218 27 -274 10z m58 -330
c47 -47 9 -134 -59 -134 -61 0 -100 58 -74 112 26 53 90 63 133 22z m310 -10
c47 -47 9 -134 -59 -134 -61 0 -100 58 -74 112 26 53 90 63 133 22z"/>
<path d="M1050 383 c-27 -10 -50 -36 -50 -55 0 -16 9 -18 80 -18 71 0 80 2 80
18 0 37 -69 71 -110 55z"/>
</g>
</svg>
