<?xml version="1.0" standalone="no"?>
<!DOCTYPE svg PUBLIC "-//W3C//DTD SVG 20010904//EN"
 "http://www.w3.org/TR/2001/REC-SVG-20010904/DTD/svg10.dtd">
<svg version="1.0" xmlns="http://www.w3.org/2000/svg"
 width="200.000000pt" height="200.000000pt" viewBox="0 0 200.000000 200.000000"
 preserveAspectRatio="xMidYMid meet">

<g transform="translate(0.000000,200.000000) scale(0.100000,-0.100000)"
fill="#000000" stroke="none">
<path d="M0 1000 l0 -1000 1000 0 1000 0 0 1000 0 1000 -1000 0 -1000 0 0
-1000z m1871 871 l39 -39 -2 -618 -3 -619 -905 0 -905 0 -3 619 -2 618 39 39
39 39 832 0 832 0 39 -39z m-1266 -1568 c22 -59 42 -111 43 -115 2 -4 -5 -8
-15 -8 -12 0 -23 11 -30 30 -10 27 -15 30 -58 30 -42 0 -47 -2 -56 -30 -7 -18
-18 -30 -29 -30 -18 0 -16 8 59 203 21 55 43 34 86 -80z m553 95 c-3 -7 -11
-13 -18 -13 -7 0 -15 6 -17 13 -3 7 4 12 17 12 13 0 20 -5 18 -12z m-448 -113
c12 -36 23 -65 25 -65 2 0 11 24 20 53 10 28 23 58 31 66 28 30 26 -1 -6 -79
-42 -105 -56 -105 -92 -2 -32 90 -33 92 -14 92 9 0 23 -26 36 -65z m237 43 c8
-7 13 -36 13 -78 l0 -68 -56 1 c-64 2 -81 17 -70 60 6 25 12 29 69 41 43 10
27 31 -22 29 -45 -2 -54 12 -18 27 24 10 65 4 84 -12z m118 12 c23 9 35 4 35
-12 0 -4 -9 -8 -20 -8 -27 0 -40 -29 -40 -89 0 -39 -4 -51 -15 -51 -12 0 -15
15 -15 78 0 79 6 100 23 83 6 -6 19 -6 32 -1z m87 3 c1 -5 2 -43 3 -85 1 -67
-1 -78 -15 -78 -15 0 -17 11 -17 78 -1 80 2 92 18 92 5 0 10 -3 11 -7z m152 1
c9 -3 16 -12 16 -20 0 -8 -6 -11 -15 -8 -27 11 -65 -6 -75 -31 -20 -52 25 -99
71 -75 18 10 20 9 17 -7 -4 -25 -73 -31 -98 -8 -44 40 -30 117 24 141 36 16
39 16 60 8z m149 -3 c21 -8 47 -54 47 -82 0 -5 -27 -9 -60 -9 -62 0 -71 -7
-44 -34 17 -18 42 -20 64 -7 20 13 34 2 19 -15 -6 -8 -29 -14 -50 -14 -51 0
-79 27 -79 78 0 40 12 63 45 80 25 14 28 14 58 3z"/>
<path d="M520 1320 l0 -170 25 0 c31 0 31 -3 0 -44 -36 -47 -74 -136 -81 -189
l-7 -47 617 0 616 0 0 23 c0 47 -32 128 -75 193 l-45 67 0 168 0 169 -59 0
c-81 0 -290 -28 -379 -51 -72 -18 -74 -18 -155 1 -94 22 -315 50 -399 50 l-58
0 0 -170z m550 -351 c0 -5 -7 -9 -15 -9 -15 0 -20 12 -9 23 8 8 24 -1 24 -14z"/>
<path d="M531 334 c-7 -21 -15 -45 -17 -51 -4 -9 6 -13 31 -13 40 0 40 2 11
74 l-12 29 -13 -39z"/>
<path d="M873 253 c-18 -7 -16 -42 1 -49 22 -8 56 14 56 36 0 20 -27 26 -57
13z"/>
<path d="M1396 305 c-23 -23 -21 -25 25 -25 33 0 40 3 37 18 -4 23 -41 27 -62
7z"/>
</g>
</svg>
